<?xml version="1.0" encoding="UTF-8" standalone="no"?>
<svg
   id="svg"
   version="1.1"
   width="400"
   height="266.6666666666667"
   viewBox="0, 0, 400,266.6666666666667"
   sodipodi:docname="image2vector.svg"
   inkscape:version="1.1 (c4e8f9ed74, 2021-05-24)"
   xmlns:inkscape="http://www.inkscape.org/namespaces/inkscape"
   xmlns:sodipodi="http://sodipodi.sourceforge.net/DTD/sodipodi-0.dtd"
   xmlns="http://www.w3.org/2000/svg"
   xmlns:svg="http://www.w3.org/2000/svg">
  <defs
     id="defs8" />
  <sodipodi:namedview
     id="namedview6"
     pagecolor="#ffffff"
     bordercolor="#666666"
     borderopacity="1.0"
     inkscape:pageshadow="2"
     inkscape:pageopacity="0.0"
     inkscape:pagecheckerboard="0"
     showgrid="false"
     inkscape:snap-object-midpoints="false"
     inkscape:zoom="1.109823"
     inkscape:rotation="1"
     inkscape:cx="142.42529"
     inkscape:cy="53.837822"
     inkscape:window-width="1366"
     inkscape:window-height="768"
     inkscape:window-x="0"
     inkscape:window-y="0"
     inkscape:window-maximized="1"
     inkscape:current-layer="svg" />
  <path
     id="path923"
     style="fill:#000000"
     d="M 197.11328 0.74414062 A 132.63727 132.63727 0 0 0 64.476562 133.38281 A 132.63727 132.63727 0 0 0 197.11328 266.01953 A 132.63727 132.63727 0 0 0 329.75 133.38281 A 132.63727 132.63727 0 0 0 197.11328 0.74414062 z M 194.87695 49.894531 A 82.60112 82.60112 0 0 1 277.47852 132.49609 A 82.60112 82.60112 0 0 1 194.87695 215.09766 A 82.60112 82.60112 0 0 1 112.27734 132.49609 A 82.60112 82.60112 0 0 1 194.87695 49.894531 z " />
</svg>
